<svg xmlns="http://www.w3.org/2000/svg" style="width:0; height:0; visibility:hidden;">
    <symbol id="home2" viewBox="0 0 24 24">
       <path d="M9.984 20.016h-4.969v-8.016h-3l9.984-9 9.984 9h-3v8.016h-4.969v-6h-4.031v6z"/> 
    </symbol>
    <symbol id="file-o" viewBox="0 0 24 28">
       <path d="M22.937 5.938q0.438 0.438 0.75 1.188t0.313 1.375v18q0 0.625-0.438 1.062t-1.062 0.438h-21q-0.625 0-1.062-0.438t-0.438-1.062v-25q0-0.625 0.438-1.062t1.062-0.438h14q0.625 0 1.375 0.313t1.188 0.75zM16 2.125v5.875h5.875q-0.156-0.453-0.344-0.641l-4.891-4.891q-0.187-0.187-0.641-0.344zM22 26v-16h-6.5q-0.625 0-1.062-0.438t-0.438-1.062v-6.5h-12v24h20z"/> 
    </symbol>
    <symbol id="folder-open-o" viewBox="0 0 30 28">
       <path d="M27.828 14.547q0-0.547-0.828-0.547h-17q-0.625 0-1.336 0.336t-1.117 0.82l-4.594 5.672q-0.281 0.375-0.281 0.625 0 0.547 0.828 0.547h17q0.625 0 1.344-0.344t1.109-0.828l4.594-5.672q0.281-0.344 0.281-0.609zM10 12h12v-2.5q0-0.625-0.438-1.062t-1.062-0.438h-9q-0.625 0-1.062-0.438t-0.438-1.062v-1q0-0.625-0.438-1.062t-1.062-0.438h-5q-0.625 0-1.062 0.438t-0.438 1.062v13.328l4-4.922q0.688-0.828 1.813-1.367t2.188-0.539zM29.828 14.547q0 0.969-0.719 1.875l-4.609 5.672q-0.672 0.828-1.813 1.367t-2.188 0.539h-17q-1.437 0-2.469-1.031t-1.031-2.469v-15q0-1.437 1.031-2.469t2.469-1.031h5q1.437 0 2.469 1.031t1.031 2.469v0.5h8.5q1.437 0 2.469 1.031t1.031 2.469v2.5h3q0.844 0 1.547 0.383t1.047 1.102q0.234 0.5 0.234 1.062z"/> 
    </symbol>
    <symbol id="folder-o" viewBox="0 0 26 28">
       <path d="M24 20.5v-11q0-0.625-0.438-1.062t-1.062-0.438h-11q-0.625 0-1.062-0.438t-0.438-1.062v-1q0-0.625-0.438-1.062t-1.062-0.438h-5q-0.625 0-1.062 0.438t-0.438 1.062v15q0 0.625 0.438 1.062t1.062 0.438h19q0.625 0 1.062-0.438t0.438-1.062zM26 9.5v11q0 1.437-1.031 2.469t-2.469 1.031h-19q-1.437 0-2.469-1.031t-1.031-2.469v-15q0-1.437 1.031-2.469t2.469-1.031h5q1.437 0 2.469 1.031t1.031 2.469v0.5h10.5q1.437 0 2.469 1.031t1.031 2.469z"/> 
    </symbol>
    <symbol id="file-image-o" viewBox="0 0 24 28">
       <path d="M22.937 5.938q0.438 0.438 0.75 1.188t0.313 1.375v18q0 0.625-0.438 1.062t-1.062 0.438h-21q-0.625 0-1.062-0.438t-0.438-1.062v-25q0-0.625 0.438-1.062t1.062-0.438h14q0.625 0 1.375 0.313t1.188 0.75zM16 2.125v5.875h5.875q-0.156-0.453-0.344-0.641l-4.891-4.891q-0.187-0.187-0.641-0.344zM22 26v-16h-6.5q-0.625 0-1.062-0.438t-0.438-1.062v-6.5h-12v24h20zM20 19v5h-16v-3l3-3 2 2 6-6zM7 16q-1.25 0-2.125-0.875t-0.875-2.125 0.875-2.125 2.125-0.875 2.125 0.875 0.875 2.125-0.875 2.125-2.125 0.875z"/> 
    </symbol>
    <symbol id="minus" viewBox="0 0 22 28">
       <path d="M22 11.5v3q0 0.625-0.438 1.062t-1.062 0.438h-19q-0.625 0-1.062-0.438t-0.438-1.062v-3q0-0.625 0.438-1.062t1.062-0.438h19q0.625 0 1.062 0.438t0.438 1.062z"/> 
    </symbol>
    <symbol id="plus" viewBox="0 0 22 28">
       <path d="M22 11.5v3q0 0.625-0.438 1.062t-1.062 0.438h-6.5v6.5q0 0.625-0.438 1.062t-1.062 0.438h-3q-0.625 0-1.062-0.438t-0.438-1.062v-6.5h-6.5q-0.625 0-1.062-0.438t-0.438-1.062v-3q0-0.625 0.438-1.062t1.062-0.438h6.5v-6.5q0-0.625 0.438-1.062t1.062-0.438h3q0.625 0 1.062 0.438t0.438 1.062v6.5h6.5q0.625 0 1.062 0.438t0.438 1.062z"/> 
    </symbol>
    <symbol id="sentiment_dissatisfied" viewBox="0 0 24 24">
       <path d="M12 14.016c2.344 0 4.313 1.406 5.109 3.469h-1.641c-0.703-1.172-1.969-1.969-3.469-1.969s-2.766 0.797-3.469 1.969h-1.641c0.797-2.063 2.766-3.469 5.109-3.469zM12 20.016c4.406 0 8.016-3.609 8.016-8.016s-3.609-8.016-8.016-8.016-8.016 3.609-8.016 8.016 3.609 8.016 8.016 8.016zM12 2.016c5.531 0 9.984 4.453 9.984 9.984s-4.453 9.984-9.984 9.984-9.984-4.453-9.984-9.984 4.453-9.984 9.984-9.984zM6.984 9.516c0-0.844 0.656-1.5 1.5-1.5s1.5 0.656 1.5 1.5-0.656 1.5-1.5 1.5-1.5-0.656-1.5-1.5zM14.016 9.516c0-0.844 0.656-1.5 1.5-1.5s1.5 0.656 1.5 1.5-0.656 1.5-1.5 1.5-1.5-0.656-1.5-1.5z"/> 
    </symbol>
    <symbol id="sentiment_satisfied" viewBox="0 0 24 24">
       <path d="M12 15.984c1.5 0 2.766-0.797 3.469-1.969h1.641c-0.797 2.063-2.766 3.469-5.109 3.469s-4.313-1.406-5.109-3.469h1.641c0.703 1.172 1.969 1.969 3.469 1.969zM12 20.016c4.406 0 8.016-3.609 8.016-8.016s-3.609-8.016-8.016-8.016-8.016 3.609-8.016 8.016 3.609 8.016 8.016 8.016zM12 2.016c5.531 0 9.984 4.453 9.984 9.984s-4.453 9.984-9.984 9.984-9.984-4.453-9.984-9.984 4.453-9.984 9.984-9.984zM6.984 9.516c0-0.844 0.656-1.5 1.5-1.5s1.5 0.656 1.5 1.5-0.656 1.5-1.5 1.5-1.5-0.656-1.5-1.5zM14.016 9.516c0-0.844 0.656-1.5 1.5-1.5s1.5 0.656 1.5 1.5-0.656 1.5-1.5 1.5-1.5-0.656-1.5-1.5z"/> 
    </symbol>
    <symbol id="lock" viewBox="0 0 18 28">
       <path d="M5 12h8v-3q0-1.656-1.172-2.828t-2.828-1.172-2.828 1.172-1.172 2.828v3zM18 13.5v9q0 0.625-0.438 1.062t-1.062 0.438h-15q-0.625 0-1.062-0.438t-0.438-1.062v-9q0-0.625 0.438-1.062t1.062-0.438h0.5v-3q0-2.875 2.063-4.937t4.937-2.063 4.937 2.063 2.063 4.937v3h0.5q0.625 0 1.062 0.438t0.438 1.062z"/> 
    </symbol>
    <symbol id="flag" viewBox="0 0 29 28">
       <path d="M5 4q0 1.125-1 1.719v19.781q0 0.203-0.148 0.352t-0.352 0.148h-1q-0.203 0-0.352-0.148t-0.148-0.352v-19.781q-1-0.594-1-1.719 0-0.828 0.586-1.414t1.414-0.586 1.414 0.586 0.586 1.414zM28 5v11.922q0 0.391-0.195 0.602t-0.617 0.43q-3.359 1.813-5.766 1.813-0.953 0-1.93-0.344t-1.695-0.75-1.805-0.75-2.227-0.344q-3 0-7.25 2.281-0.266 0.141-0.516 0.141-0.406 0-0.703-0.297t-0.297-0.703v-11.594q0-0.5 0.484-0.859 0.328-0.219 1.234-0.672 3.687-1.875 6.578-1.875 1.672 0 3.125 0.453t3.422 1.375q0.594 0.297 1.375 0.297 0.844 0 1.836-0.328t1.719-0.734 1.375-0.734 0.852-0.328q0.406 0 0.703 0.297t0.297 0.703z"/> 
    </symbol>
    <symbol id="account_circle" viewBox="0 0 24 24">
       <path d="M12 19.219c2.484 0 4.688-1.313 6-3.234-0.047-1.969-4.031-3.094-6-3.094-2.016 0-5.953 1.125-6 3.094 1.313 1.922 3.516 3.234 6 3.234zM12 5.016c-1.641 0-3 1.359-3 3s1.359 3 3 3 3-1.359 3-3-1.359-3-3-3zM12 2.016c5.531 0 9.984 4.453 9.984 9.984s-4.453 9.984-9.984 9.984-9.984-4.453-9.984-9.984 4.453-9.984 9.984-9.984z"/> 
    </symbol>
    <symbol id="loyalty" viewBox="0 0 24 24">
       <path d="M17.25 15.281c0.469-0.469 0.75-1.078 0.75-1.781 0-1.359-1.125-2.484-2.484-2.484-0.703 0-1.313 0.234-1.781 0.703l-0.75 0.75-0.703-0.75c-0.469-0.469-1.078-0.703-1.781-0.703-1.359 0-2.484 1.125-2.484 2.484 0 0.703 0.234 1.313 0.703 1.781l4.266 4.266zM5.484 6.984c0.844 0 1.5-0.656 1.5-1.5s-0.656-1.5-1.5-1.5-1.5 0.656-1.5 1.5 0.656 1.5 1.5 1.5zM21.422 11.578c0.375 0.375 0.563 0.844 0.563 1.406s-0.188 1.031-0.563 1.406l-7.031 7.031c-0.375 0.375-0.844 0.563-1.406 0.563s-1.031-0.188-1.406-0.563l-9-9c-0.375-0.375-0.563-0.844-0.563-1.406v-7.031c0-1.078 0.891-1.969 1.969-1.969h7.031c0.563 0 1.031 0.188 1.406 0.563z"/> 
    </symbol>
    <symbol id="insert_drive_file" viewBox="0 0 24 24">
       <path d="M12.984 9h5.531l-5.531-5.484v5.484zM6 2.016h8.016l6 6v12c0 1.078-0.938 1.969-2.016 1.969h-12c-1.078 0-2.016-0.891-2.016-1.969l0.047-16.031c0-1.078 0.891-1.969 1.969-1.969z"/> 
    </symbol>
    <symbol id="newspaper-o" viewBox="0 0 32 28">
       <path d="M16 8h-6v6h6v-6zM18 18v2h-10v-2h10zM18 6v10h-10v-10h10zM28 18v2h-8v-2h8zM28 14v2h-8v-2h8zM28 10v2h-8v-2h8zM28 6v2h-8v-2h8zM4 21v-15h-2v15q0 0.406 0.297 0.703t0.703 0.297 0.703-0.297 0.297-0.703zM30 21v-17h-24v17q0 0.516-0.172 1h23.172q0.406 0 0.703-0.297t0.297-0.703zM32 2v19q0 1.25-0.875 2.125t-2.125 0.875h-26q-1.25 0-2.125-0.875t-0.875-2.125v-17h4v-2h28z"/> 
    </symbol>
    <symbol id="home" viewBox="0 0 26 28">
       <path d="M22 15.5v7.5q0 0.406-0.297 0.703t-0.703 0.297h-6v-6h-4v6h-6q-0.406 0-0.703-0.297t-0.297-0.703v-7.5q0-0.016 0.008-0.047t0.008-0.047l8.984-7.406 8.984 7.406q0.016 0.031 0.016 0.094zM25.484 14.422l-0.969 1.156q-0.125 0.141-0.328 0.172h-0.047q-0.203 0-0.328-0.109l-10.813-9.016-10.813 9.016q-0.187 0.125-0.375 0.109-0.203-0.031-0.328-0.172l-0.969-1.156q-0.125-0.156-0.109-0.367t0.172-0.336l11.234-9.359q0.5-0.406 1.188-0.406t1.188 0.406l3.813 3.187v-3.047q0-0.219 0.141-0.359t0.359-0.141h3q0.219 0 0.359 0.141t0.141 0.359v6.375l3.422 2.844q0.156 0.125 0.172 0.336t-0.109 0.367z"/> 
    </symbol>
    <symbol id="search" viewBox="0 0 26 28">
       <path d="M18 13q0-2.891-2.055-4.945t-4.945-2.055-4.945 2.055-2.055 4.945 2.055 4.945 4.945 2.055 4.945-2.055 2.055-4.945zM26 26q0 0.812-0.594 1.406t-1.406 0.594q-0.844 0-1.406-0.594l-5.359-5.344q-2.797 1.937-6.234 1.937-2.234 0-4.273-0.867t-3.516-2.344-2.344-3.516-0.867-4.273 0.867-4.273 2.344-3.516 3.516-2.344 4.273-0.867 4.273 0.867 3.516 2.344 2.344 3.516 0.867 4.273q0 3.437-1.937 6.234l5.359 5.359q0.578 0.578 0.578 1.406z"/> 
    </symbol>
    <symbol id="arrow-down" viewBox="0 0 26 28">
       <path d="M25.172 13q0 0.828-0.578 1.406l-10.172 10.187q-0.609 0.578-1.422 0.578-0.828 0-1.406-0.578l-10.172-10.187q-0.594-0.562-0.594-1.406 0-0.828 0.594-1.422l1.156-1.172q0.609-0.578 1.422-0.578 0.828 0 1.406 0.578l4.594 4.594v-11q0-0.812 0.594-1.406t1.406-0.594h2q0.812 0 1.406 0.594t0.594 1.406v11l4.594-4.594q0.578-0.578 1.406-0.578 0.812 0 1.422 0.578l1.172 1.172q0.578 0.609 0.578 1.422z"/> 
    </symbol>
    <symbol id="close" viewBox="0 0 22 28">
       <path d="M20.281 20.656q0 0.625-0.438 1.062l-2.125 2.125q-0.438 0.438-1.062 0.438t-1.062-0.438l-4.594-4.594-4.594 4.594q-0.438 0.438-1.062 0.438t-1.062-0.438l-2.125-2.125q-0.438-0.438-0.438-1.062t0.438-1.062l4.594-4.594-4.594-4.594q-0.438-0.438-0.438-1.062t0.438-1.062l2.125-2.125q0.438-0.438 1.062-0.438t1.062 0.438l4.594 4.594 4.594-4.594q0.438-0.438 1.062-0.438t1.062 0.438l2.125 2.125q0.438 0.438 0.438 1.062t-0.438 1.062l-4.594 4.594 4.594 4.594q0.438 0.438 0.438 1.062z"/> 
    </symbol>
    <symbol id="close2" viewBox="0 0 24 24">
       <path d="M18.984 6.422l-5.578 5.578 5.578 5.578-1.406 1.406-5.578-5.578-5.578 5.578-1.406-1.406 5.578-5.578-5.578-5.578 1.406-1.406 5.578 5.578 5.578-5.578z"/> 
    </symbol>
    <symbol id="format_quote" viewBox="0 0 24 24">
       <path d="M14.016 17.016l1.969-4.031h-3v-6h6v6l-1.969 4.031h-3zM6 17.016l2.016-4.031h-3v-6h6v6l-2.016 4.031h-3z"/> 
    </symbol>
    <symbol id="format_list_bulleted" viewBox="0 0 24 24">
       <path d="M6.984 5.016h14.016v1.969h-14.016v-1.969zM6.984 12.984v-1.969h14.016v1.969h-14.016zM6.984 18.984v-1.969h14.016v1.969h-14.016zM3.984 16.5c0.844 0 1.5 0.703 1.5 1.5s-0.703 1.5-1.5 1.5-1.5-0.703-1.5-1.5 0.656-1.5 1.5-1.5zM3.984 4.5c0.844 0 1.5 0.656 1.5 1.5s-0.656 1.5-1.5 1.5-1.5-0.656-1.5-1.5 0.656-1.5 1.5-1.5zM3.984 10.5c0.844 0 1.5 0.656 1.5 1.5s-0.656 1.5-1.5 1.5-1.5-0.656-1.5-1.5 0.656-1.5 1.5-1.5z"/> 
    </symbol>
    <symbol id="format_list_numbered" viewBox="0 0 24 24">
       <path d="M6.984 12.984v-1.969h14.016v1.969h-14.016zM6.984 18.984v-1.969h14.016v1.969h-14.016zM6.984 5.016h14.016v1.969h-14.016v-1.969zM2.016 11.016v-1.031h3v0.938l-1.828 2.063h1.828v1.031h-3v-0.938l1.781-2.063h-1.781zM3 8.016v-3h-0.984v-1.031h1.969v4.031h-0.984zM2.016 17.016v-1.031h3v4.031h-3v-1.031h1.969v-0.469h-0.984v-1.031h0.984v-0.469h-1.969z"/> 
    </symbol>
    <symbol id="colorize" viewBox="0 0 24 24">
       <path d="M6.938 18.984l8.063-8.063-1.922-1.922-8.063 8.063zM20.719 5.625c0.375 0.375 0.422 0.984 0 1.406l-3.141 3.141 1.922 1.922-1.406 1.406-1.406-1.406-8.953 8.906h-4.734v-4.734l8.906-8.953-1.406-1.406 1.406-1.406 1.922 1.922 3.141-3.141c0.375-0.375 1.031-0.375 1.406 0z"/> 
    </symbol>
    <symbol id="image" viewBox="0 0 30 28">
       <path d="M10 9q0 1.25-0.875 2.125t-2.125 0.875-2.125-0.875-0.875-2.125 0.875-2.125 2.125-0.875 2.125 0.875 0.875 2.125zM26 15v7h-22v-3l5-5 2.5 2.5 8-8zM27.5 4h-25q-0.203 0-0.352 0.148t-0.148 0.352v19q0 0.203 0.148 0.352t0.352 0.148h25q0.203 0 0.352-0.148t0.148-0.352v-19q0-0.203-0.148-0.352t-0.352-0.148zM30 4.5v19q0 1.031-0.734 1.766t-1.766 0.734h-25q-1.031 0-1.766-0.734t-0.734-1.766v-19q0-1.031 0.734-1.766t1.766-0.734h25q1.031 0 1.766 0.734t0.734 1.766z"/> 
    </symbol>
    <symbol id="arrow-left" viewBox="0 0 25 28">
       <path d="M24 14v2q0 0.828-0.508 1.414t-1.32 0.586h-11l4.578 4.594q0.594 0.562 0.594 1.406t-0.594 1.406l-1.172 1.188q-0.578 0.578-1.406 0.578-0.812 0-1.422-0.578l-10.172-10.187q-0.578-0.578-0.578-1.406 0-0.812 0.578-1.422l10.172-10.156q0.594-0.594 1.422-0.594 0.812 0 1.406 0.594l1.172 1.156q0.594 0.594 0.594 1.422t-0.594 1.422l-4.578 4.578h11q0.812 0 1.32 0.586t0.508 1.414z"/> 
    </symbol></svg>